<?xml version="1.0" encoding="UTF-8" ?>
<!DOCTYPE svg PUBLIC "-//W3C//DTD SVG 1.1//EN" "http://www.w3.org/Graphics/SVG/1.1/DTD/svg11.dtd">
<svg width="160pt" height="160pt" viewBox="0 0 160 160" version="1.1" xmlns="http://www.w3.org/2000/svg">
<g id="#83a51aff">
<path fill="#83a51a" opacity="1.00" d=" M 6.74 44.12 C 28.49 44.10 50.25 44.14 72.01 44.10 C 73.90 44.17 75.86 43.86 77.70 44.39 C 79.31 48.17 80.68 52.04 82.36 55.79 C 72.17 55.84 61.99 55.81 51.81 55.80 C 49.14 61.84 47.01 68.10 44.45 74.19 C 40.70 83.48 36.40 92.54 32.78 101.89 C 24.62 102.05 16.45 101.94 8.29 102.06 C 14.41 86.53 20.75 71.10 27.43 55.80 C 18.94 55.82 10.44 55.83 1.95 55.80 C 3.46 51.87 5.20 48.04 6.74 44.12 Z" />
<path fill="#83a51a" opacity="1.00" d=" M 85.39 44.23 C 97.82 44.34 110.25 44.16 122.67 44.32 C 132.55 44.58 143.09 45.53 151.25 51.69 C 155.40 54.53 156.08 59.83 157.84 64.15 C 159.09 67.55 159.99 72.18 157.10 75.00 C 153.31 79.23 147.40 80.29 142.08 81.30 C 135.45 82.04 128.76 81.68 122.10 81.76 C 124.10 88.60 126.74 95.25 129.29 101.91 C 121.77 102.04 114.24 101.93 106.72 101.98 C 102.25 89.17 96.72 76.76 92.44 63.87 C 90.20 57.29 87.74 50.78 85.39 44.23 M 111.42 53.77 C 113.75 59.56 116.01 65.38 118.13 71.25 C 124.11 71.10 130.65 72.23 136.06 69.05 C 138.46 62.33 132.52 55.45 125.99 54.50 C 121.16 53.80 116.29 53.62 111.42 53.77 Z" />
<path fill="#83a51a" opacity="1.00" d=" M 37.27 106.55 C 43.85 90.85 50.00 74.97 57.03 59.46 C 66.37 59.73 75.72 59.19 85.04 59.77 C 91.07 75.24 96.15 91.05 101.87 106.63 C 111.65 106.84 121.43 106.68 131.21 106.71 C 132.57 109.73 133.85 112.78 134.99 115.89 C 90.41 115.82 45.82 116.00 1.23 115.80 C 3.04 112.72 4.70 109.55 6.56 106.50 C 16.80 106.65 27.03 106.56 37.27 106.55 M 56.40 106.51 C 64.61 106.89 72.84 106.71 81.06 106.68 C 78.37 95.72 75.33 84.84 72.89 73.83 C 71.20 73.80 69.52 73.79 67.84 73.78 C 64.08 84.71 60.13 95.57 56.40 106.51 Z" />
</g>
</svg>
